<svg width="24" height="24" viewBox="0 0 24 24" fill="none" xmlns="http://www.w3.org/2000/svg">
<path d="M21.626 6.25523C21.4418 5.09479 20.3809 4.0807 19.2068 3.94617C14.4154 3.42404 9.58143 3.4242 4.79007 3.94663C3.62016 4.0807 2.55929 5.0946 2.37413 6.25945C1.79174 10.0643 1.79196 13.9357 2.37479 17.7405C2.5592 18.901 3.62016 19.915 4.79401 20.0493C7.18726 20.3104 9.59294 20.4411 12.0004 20.441C14.4078 20.4411 16.8135 20.3104 19.2068 20.0493L19.2106 20.0489C20.3806 19.9151 21.4417 18.9011 21.6267 17.7361C22.2091 13.9313 22.2088 10.06 21.626 6.25523ZM15.4164 12.6218L10.9164 15.6218C10.8034 15.6971 10.6721 15.7403 10.5366 15.7468C10.401 15.7534 10.2662 15.723 10.1465 15.659C10.0268 15.5949 9.92677 15.4996 9.85701 15.3832C9.78725 15.2667 9.7504 15.1335 9.75038 14.9978V8.99779C9.75039 8.86204 9.78723 8.72883 9.857 8.61238C9.92676 8.49592 10.0268 8.40058 10.1465 8.33653C10.2662 8.27248 10.401 8.24212 10.5366 8.24868C10.6722 8.25524 10.8035 8.29848 10.9164 8.37379L15.4164 11.3738C15.5192 11.4423 15.6034 11.5351 15.6616 11.6439C15.7199 11.7528 15.7504 11.8743 15.7504 11.9978C15.7504 12.1213 15.7199 12.2428 15.6616 12.3517C15.6034 12.4605 15.5192 12.5533 15.4164 12.6218H15.4164Z" fill="#2997F9"/>
</svg>
