<svg width="136" height="72" viewBox="0 0 136 72" fill="none" xmlns="http://www.w3.org/2000/svg">
<path fill-rule="evenodd" clip-rule="evenodd" d="M52.1791 28.9303L51.041 28.0768L51.5351 27.5536C51.5024 26.7129 51.8889 25.712 52.6251 24.882C53.4324 23.972 54.4942 23.4552 55.3879 23.4743L55.8778 22.9554L56.7314 24.0935L56.716 24.1099C57.3778 24.9883 57.1145 26.5718 55.9768 27.8547C54.7706 29.2134 53.113 29.6372 52.1832 28.926L52.1791 28.9303Z" fill="#B9B9B9"/>
<path d="M55.1988 27.0571C56.4919 25.5996 56.7451 23.7126 55.7644 22.8425C54.7836 21.9723 52.9402 22.4484 51.6471 23.906C50.354 25.3635 50.1007 27.2504 51.0815 28.1206C52.0623 28.9908 53.9056 28.5146 55.1988 27.0571Z" fill="url(#paint0_linear_0_632)"/>
<path d="M55.2173 27.073C56.5025 25.6244 56.7413 23.7376 55.7506 22.8587C54.76 21.9798 52.915 22.4416 51.6298 23.8902C50.3446 25.3387 50.1058 27.2256 51.0965 28.1045C52.0871 28.9834 53.932 28.5216 55.2173 27.073Z" fill="white"/>
<path d="M13.5044 36.0952L26.1052 22.5942H19.4042L6.02155 36.6517V22.5942H0V50.5476H6.02155V43.957L9.53935 40.3061L17.919 50.5476H24.9899L14.3568 37.1684L13.5044 36.0941V36.0952Z" fill="white"/>
<path d="M45.524 35.0175C43.6507 32.046 40.2137 30.208 36.0233 30.208C31.545 30.208 27.9089 32.3089 26.1357 35.6378C25.3698 37.0638 24.9521 38.7197 24.9521 40.5281C24.9521 46.5621 29.6251 50.8481 36.0233 50.8481C42.4216 50.8481 47.0593 46.5621 47.0593 40.5281C47.0593 38.4488 46.5073 36.5755 45.524 35.0175ZM36.0233 46.0785C33.1053 46.0785 30.8599 43.9924 30.8599 40.5281C30.8599 37.5486 32.5169 35.5888 34.8375 35.0995C35.2164 35.0164 35.6136 34.9754 36.0233 34.9754C36.3113 34.9754 36.5878 34.9936 36.8598 35.038C39.3511 35.3976 41.1481 37.4018 41.1481 40.5281C41.1481 43.9924 38.9425 46.0785 36.0245 46.0785H36.0233Z" fill="white"/>
<path d="M56.7841 30.506H50.9492V50.5486H56.7841V30.506Z" fill="white"/>
<path d="M74.443 30.208C71.7116 30.208 69.3546 31.1412 67.7841 32.8529V30.5062H62.2109V50.5488H68.0447V40.6385C68.0447 39.1817 68.3588 38.0334 68.9176 37.181C69.7643 35.8665 71.1755 35.2394 72.8724 35.2394C75.1656 35.2394 76.6019 36.4151 76.8932 38.9473C76.9308 39.2637 76.949 39.6074 76.949 39.9693V50.5477H80.1629L82.7873 46.9036V39.077C82.7873 32.9644 79.1944 30.208 74.443 30.208Z" fill="white"/>
<path d="M113.118 22.4987L84.4922 50.5488H93.4022L96.0175 46.8307L110.83 25.7558L113.118 22.4987Z" fill="white"/>
<path d="M104.681 22.4987L103.765 23.771L89.3996 43.7283L84.4922 50.5488L113.118 22.4987H104.681Z" fill="white"/>
<path d="M110.284 45.6504L109.915 45.1269C109.606 44.6899 109.104 44.4304 108.572 44.4304H101.838C101.588 44.4304 101.395 44.5784 101.303 44.7753L113.75 50.5487L110.284 45.6504Z" fill="white"/>
<path d="M101.303 44.7755C101.221 44.9508 101.22 45.1647 101.342 45.3514L102.724 47.4557H102.728L104.761 50.549H113.751L101.304 44.7755H101.303Z" fill="white"/>
<path d="M97.2558 27.6906L95.1242 24.5609L93.7199 22.4999H84.9248L97.1181 28.4987C97.3571 28.32 97.447 27.9717 97.257 27.6906H97.2558Z" fill="white"/>
<path d="M84.9238 22.4987L88.6761 27.908C88.692 27.9296 88.7068 27.9478 88.7227 27.9694C89.0334 28.3757 89.5148 28.6158 90.0292 28.6158H96.7666C96.9043 28.6158 97.0216 28.5681 97.1183 28.4964L84.925 22.4976L84.9238 22.4987Z" fill="white"/>
<path d="M125.491 23.5701H123.122V29.784H121.521V23.5701H119.184V22.3865H125.491V23.5701ZM128.483 22.3865L130.472 27.7291L132.453 22.3865H134.548V29.784H132.93V27.7291L133.108 24.2276L131.014 29.784H129.922L127.836 24.2358L127.998 27.7291V29.784H126.405V22.3865H128.483Z" fill="white"/>
<defs>
<linearGradient id="paint0_linear_0_632" x1="63.1927" y1="24.3617" x2="62.051" y2="25.6469" gradientUnits="userSpaceOnUse">
<stop stop-color="#0080D4"/>
<stop offset="0.47" stop-color="white"/>
<stop offset="0.6" stop-color="#F1F8FC"/>
<stop offset="1" stop-color="#007DCC"/>
</linearGradient>
</defs>
</svg>
