<svg width="24" height="24" viewBox="0 0 24 24" fill="none" xmlns="http://www.w3.org/2000/svg">
<path d="M8.51669 5.64062L9.78537 9.66741L8.48331 9.92522C7.25914 6.234 6.64706 4.11421 6.64706 3.56585C6.64706 3.10751 6.78802 2.87835 7.06995 2.87835C7.49285 2.87835 7.97509 3.79911 8.51669 5.64062ZM11.8442 14.0748L11.4769 15.1551C11.2024 14.8114 10.9391 14.5372 10.6868 14.3326L11.0541 14.2651L11.4825 14.1791L11.8442 14.0748ZM15.0938 3.07478C15.0938 3.87686 14.504 6.00893 13.3243 9.47098C13.1982 9.38914 13.0164 9.34821 12.779 9.34821C12.6677 9.34821 12.3895 9.36868 11.9444 9.4096L13.2909 5.10045C13.8474 3.29985 14.3037 2.39955 14.6598 2.39955C14.8007 2.39955 14.9083 2.47117 14.9825 2.6144C15.0567 2.75763 15.0938 2.91109 15.0938 3.07478ZM15.973 12.3929C15.973 12.6875 15.7819 13.1745 15.3998 13.8538C15.0178 14.5331 14.5819 15.1592 14.0922 15.7321C13.6025 16.3051 13.2316 16.5915 12.9793 16.5915C12.8755 16.5915 12.7809 16.5383 12.6955 16.4319C12.6102 16.3255 12.5676 16.215 12.5676 16.1004C12.5676 15.904 12.6863 15.4866 12.9237 14.8482C13.0201 14.5863 13.1388 14.2917 13.2798 13.9643C13.4208 13.6369 13.597 13.2727 13.8084 12.8717C14.0199 12.4706 14.248 12.1391 14.4928 11.8772C14.7377 11.6153 14.9677 11.4844 15.1828 11.4844C15.3312 11.4844 15.5 11.5949 15.6892 11.8158C15.8784 12.0368 15.973 12.2292 15.973 12.3929ZM17.7313 16.5056C17.7313 16.8411 17.6386 17.2667 17.4531 17.7824C17.0154 18.9691 16.3347 19.8981 15.411 20.5692C14.4873 21.2403 13.443 21.5759 12.2782 21.5759C10.5941 21.5759 9.177 20.8802 8.02703 19.4888C6.89931 18.1057 6.33545 16.3583 6.33545 14.2467C6.33545 13.8947 6.33916 13.6205 6.34658 13.4241C6.354 13.2277 6.39666 12.974 6.47456 12.6629C6.55246 12.3519 6.66561 12.1228 6.81399 11.9754C7.22946 11.5744 8.01404 11.2654 9.16773 11.0485C10.3214 10.8317 11.3249 10.7232 12.1781 10.7232C12.4526 10.7232 12.6343 10.7682 12.7234 10.8583C12.8124 10.8992 12.8569 11.0424 12.8569 11.2879C12.8569 11.5662 12.7772 11.8118 12.6176 12.0246C12.4581 12.2374 12.2523 12.401 12 12.5156C11.7477 12.6302 11.4603 12.7264 11.1375 12.8041C10.8148 12.8819 10.4902 12.9289 10.1638 12.9453C9.83731 12.9617 9.52199 12.9781 9.21781 12.9944C8.91362 13.0108 8.65395 13.0108 8.43879 12.9944H8.18283C8.00477 12.9944 7.85639 13.0722 7.73768 13.2277C7.62639 13.3832 7.55591 13.6083 7.52623 13.9029C7.73397 14.1321 8.09009 14.3531 8.59459 14.5658C9.04716 14.7459 9.39216 14.9342 9.62957 15.1306C10.1044 15.5071 10.5069 15.9736 10.837 16.5301C11.1672 17.0867 11.3323 17.6473 11.3323 18.2121C11.3323 18.4658 11.2636 18.8279 11.1264 19.2985C10.9891 19.7692 10.9205 20.1272 10.9205 20.3728L10.9539 20.5201C10.9836 20.6183 10.9984 20.6756 10.9984 20.692C12.0148 20.6101 12.5564 19.7262 12.6232 18.0402C12.6826 18.0565 12.8347 18.0647 13.0795 18.0647C13.0647 18.122 13.0572 18.208 13.0572 18.3225C13.0572 18.7563 13.2075 19.1226 13.5079 19.4213C13.8084 19.7201 14.159 19.8694 14.5596 19.8694C15.168 19.8694 15.7856 19.5502 16.4126 18.9118C17.0395 18.2734 17.3529 17.6228 17.3529 16.9598C17.3529 16.6815 17.2305 16.4074 16.9857 16.1373C16.5999 16.6611 16.3773 16.9721 16.318 17.0703C15.7467 17.9215 15.2533 18.3471 14.8378 18.3471C14.7488 18.3471 14.6505 18.3123 14.5429 18.2427C14.4353 18.1732 14.3816 18.0893 14.3816 17.9911C14.3816 17.7128 14.7061 17.1194 15.3553 16.2109C16.0045 15.3025 16.4367 14.8482 16.6518 14.8482C16.9709 14.8482 17.2305 15.0303 17.4308 15.3945C17.6312 15.7587 17.7313 16.1291 17.7313 16.5056ZM19 16.6161C19 15.7894 18.8423 15.1224 18.527 14.615C18.2117 14.1075 17.7054 13.7474 17.0079 13.5346C17.2157 12.9289 17.3196 12.5033 17.3196 12.2578C17.3196 11.7504 17.0933 11.247 16.6407 10.7478C16.1881 10.2485 15.7356 9.99888 15.283 9.99888C15.0678 9.99888 14.8082 10.0603 14.504 10.183C15.7133 6.40179 16.318 4.08147 16.318 3.2221C16.318 2.56734 16.1659 2.0333 15.8617 1.61998C15.5575 1.20666 15.1161 1 14.5374 1C13.5654 1 12.3598 3.3776 10.9205 8.13281C10.876 8.27195 10.8463 8.36607 10.8315 8.41518C10.787 8.28423 10.6794 7.95889 10.5087 7.43917C10.3381 6.91946 10.1767 6.43452 10.0246 5.98438C9.87255 5.53423 9.67223 5.01246 9.42369 4.41908C9.17515 3.82571 8.93588 3.32236 8.70588 2.90904C8.47589 2.49572 8.21436 2.14174 7.9213 1.8471C7.62825 1.55246 7.34446 1.40513 7.06995 1.40513C6.54319 1.40513 6.12772 1.60565 5.82353 2.0067C5.51934 2.40774 5.36725 2.90699 5.36725 3.50446C5.36725 4.38839 5.95708 6.63914 7.13673 10.2567C6.68415 10.3795 6.31134 10.5677 6.01828 10.8214C5.72523 11.0751 5.50821 11.3943 5.36725 11.779C5.22628 12.1637 5.12984 12.5463 5.0779 12.9269C5.02597 13.3075 5 13.7597 5 14.2835C5 15.5112 5.17435 16.657 5.52305 17.721C5.87175 18.785 6.36142 19.7057 6.99205 20.4833C7.62268 21.2608 8.40541 21.8746 9.34022 22.3248C10.275 22.7749 11.3063 23 12.434 23C13.2576 23 14.0848 22.8281 14.9157 22.4844C16.0212 22.0179 16.9783 21.2342 17.787 20.1334C18.5957 19.0326 19 17.8601 19 16.6161Z" fill="#2997F9"/>
</svg>
