<svg width="24" height="24" viewBox="0 0 24 24" fill="none" xmlns="http://www.w3.org/2000/svg">
<path d="M21.7523 5.96017C21.0352 6.26954 20.2547 6.4922 19.4508 6.57892C20.2854 6.08306 20.9104 5.2997 21.2086 4.37579C20.4254 4.8417 19.5674 5.16841 18.6727 5.34142C18.2987 4.94163 17.8464 4.62315 17.344 4.40581C16.8416 4.18847 16.2998 4.07693 15.7523 4.07813C13.5375 4.07813 11.7563 5.87345 11.7563 8.07657C11.7563 8.38595 11.7938 8.69532 11.8547 8.99298C8.53828 8.81954 5.58047 7.23517 3.61406 4.80938C3.25576 5.42137 3.068 6.1182 3.07031 6.82735C3.07031 8.21485 3.77578 9.43829 4.85156 10.1578C4.21759 10.1329 3.59846 9.9586 3.04453 9.64923V9.69845C3.04453 11.6414 4.41797 13.2516 6.24844 13.6219C5.90475 13.7112 5.55119 13.7568 5.19609 13.7578C4.93594 13.7578 4.68984 13.732 4.44141 13.6969C4.94766 15.2813 6.42188 16.432 8.17734 16.4695C6.80391 17.5453 5.08359 18.1781 3.21563 18.1781C2.88047 18.1781 2.57109 18.1664 2.25 18.1289C4.02188 19.2656 6.12422 19.9219 8.38828 19.9219C15.7383 19.9219 19.7602 13.8328 19.7602 8.54767C19.7602 8.37423 19.7602 8.20079 19.7484 8.02735C20.5266 7.45782 21.2086 6.75235 21.7523 5.96017Z" fill="#2997F9"/>
</svg>
